Coordinates
version=1
nRows=17
nColumns=36
inDegrees=yes

Units are S.I. units (second, meters, Newtons, ...)
If the header above contains a line with 'inDegrees', this indicates whether rotational values are in degrees (yes) or radians (no).

endheader
time	pelvis_tilt	pelvis_list	pelvis_rotation	pelvis_tx	pelvis_ty	pelvis_tz	hip_flexion_r	hip_adduction_r	hip_rotation_r	knee_angle_r	knee_angle_r_beta	ankle_angle_r	subtalar_angle_r	mtp_angle_r	hip_flexion_l	hip_adduction_l	hip_rotation_l	knee_angle_l	knee_angle_l_beta	ankle_angle_l	subtalar_angle_l	mtp_angle_l	lumbar_extension	lumbar_bending	lumbar_rotation	arm_flex_r	arm_add_r	arm_rot_r	elbow_flex_r	pro_sup_r	arm_flex_l	arm_add_l	arm_rot_l	elbow_flex_l	pro_sup_l
      1.48750000	     -1.54308921	     -1.71771718	      1.35500998	     -0.87902898	      1.26435539	     -0.12590583	     -1.29826631	      0.84953612	     -3.35727984	      4.42329981	      0.07720115	      3.58458042	    -20.69526794	     -7.49999987	     -3.22959649	     -0.12443657	      5.08427987	      0.38983687	      0.00680394	      6.30468193	    -10.24268419	     -7.49999987	     -4.26722107	     -3.03913282	     -3.71777428	     -6.63991951	    -16.42155303	     -8.31078741	     83.35325680	     72.62894895	      5.81203261	    -15.34290022	     62.93827935	     17.87267862	     43.57260090
      1.49166670	     -1.57756739	     -1.73237192	      1.26564472	     -0.87921518	      1.26277715	     -0.12757295	     -1.18157090	      0.85875215	     -3.45766423	      4.38927658	      0.07660733	      3.73693071	    -20.26075789	     -7.49999987	     -3.15011238	     -0.12837511	      4.92021873	      0.39093900	      0.00682317	      6.39277856	    -10.04920465	     -7.49999987	     -4.34458863	     -2.98839754	     -3.64243202	     -6.81581955	    -16.09023217	     -8.59810827	     81.11141413	     72.22098893	      6.01459766	    -15.40383960	     62.54055026	     17.94637121	     44.00771002
      1.49583330	     -1.53550627	     -1.72081946	      1.25349644	     -0.87788631	      1.26503652	     -0.12966883	     -1.17716473	      0.82708750	     -3.33155822	      4.37360883	      0.07633387	      3.68432108	    -20.27602261	     -7.49999987	     -3.17976362	     -0.09755258	      4.89559554	      0.38872269	      0.00678449	      6.32439296	    -10.11987314	     -7.49999987	     -4.63164925	     -2.91987258	     -3.64730531	     -7.03641770	    -15.77610108	     -8.80165611	     79.17678541	     72.37661636	      6.27893195	    -15.40512342	     62.50552146	     17.90728172	     43.79943824
      1.50000000	     -1.46474106	     -1.68860619	      1.26653731	     -0.87747204	      1.27100945	     -0.13075278	     -1.23610935	      0.73418497	     -3.49533550	      4.38238982	      0.07648713	      3.52873519	    -20.12140004	     -7.49999987	     -3.25396336	     -0.02544599	      4.83342165	      0.38917105	      0.00679232	      6.08680534	    -10.07042226	     -7.49999987	     -4.88702619	     -2.90247422	     -3.96543122	     -6.81316788	    -15.29622525	     -8.63039665	     76.46273484	     72.58857278	      6.30797926	    -15.32672003	     62.25955333	     17.63919848	     43.61056891
      1.50416670	     -1.36612778	     -1.68720246	      1.26474724	     -0.87501891	      1.27594526	     -0.13159856	     -1.41566872	      0.68209640	     -3.79038470	      4.29726269	      0.07500138	      3.81416222	    -19.08701428	     -7.49999987	     -3.38908799	      0.01894054	      4.68950908	      0.37536549	      0.00655136	      5.95902408	     -9.89760134	     -7.49999987	     -5.14386381	     -2.85211619	     -4.09735831	     -6.75853272	    -14.95894163	     -8.43658073	     73.75710798	     72.25244659	      6.30010210	    -15.16438717	     61.58481120	     17.34210048	     44.03034986
      1.50833330	     -1.26664175	     -1.66174551	      1.25441669	     -0.87567149	      1.27680097	     -0.13170954	     -1.58391803	      0.59316630	     -3.69775047	      4.19247855	      0.07317255	      3.39827848	    -19.29887161	     -7.49999987	     -3.52779490	      0.07925937	      4.67603854	      0.37027435	      0.00646251	      5.53992193	    -10.14709673	     -7.49999987	     -5.44839907	     -2.81238227	     -4.19978663	     -6.61041582	    -14.62792744	     -8.04921607	     71.11857885	     71.89791458	      6.34389399	    -15.01870038	     60.98676262	     17.10289069	     44.58514670
      1.51250000	     -1.16953871	     -1.64347890	      1.28988875	     -0.87654221	      1.27971869	     -0.13297624	     -1.78829777	      0.53682437	     -3.67610744	      3.99896022	      0.06979502	      3.06008079	    -19.18231518	     -7.49999987	     -3.64744330	      0.13641779	      4.47130494	      0.35969326	      0.00627783	      5.41231089	     -9.95372120	     -7.49999987	     -5.71543960	     -2.72858474	     -4.63034471	     -5.99381904	    -14.36033387	     -7.38632270	     67.87677278	     75.77016393	      6.25171141	    -14.97029782	     61.25000633	     17.05138478	     41.16749354
      1.51666670	     -0.93218840	     -1.64008439	      1.24244012	     -0.87538004	      1.27324067	     -0.13256942	     -2.13618680	      0.49570015	     -3.75359934	      3.82922908	      0.06683266	      2.88005082	    -19.00655488	     -7.49999987	     -3.92697482	      0.17249134	      4.15033446	      0.35871184	      0.00626070	      5.47983722	     -9.68719563	     -7.49999987	     -6.13273944	     -2.60965734	     -4.18986336	     -6.12266707	    -14.17761935	     -7.47662036	     65.87018165	     74.37080797	      6.45238098	    -14.85923734	     60.62849076	     17.16424717	     42.58147387
      1.52083330	     -0.80091234	     -1.62982498	      1.24069910	     -0.87464320	      1.27466385	     -0.13553016	     -2.29934819	      0.39930504	     -3.98896148	      3.85139321	      0.06721949	      2.66957723	    -18.87918628	     -7.49999987	     -4.08905683	      0.24391080	      4.09075853	      0.35887387	      0.00626353	      5.22213521	     -9.84391298	     -7.49999987	     -6.51222011	     -2.38857427	     -3.99004939	     -6.14292487	    -14.10143224	     -7.40400547	     64.04091466	     74.45865999	      6.65994267	    -14.59086006	     60.64906850	     17.00885901	     42.45557598
      1.52500000	     -0.76474885	     -1.62914760	      1.19759772	     -0.87716994	      1.27158459	     -0.13388302	     -2.34333775	      0.37113988	     -4.04244246	      3.75505195	      0.06553802	      2.80454940	    -18.66775029	     -7.49999987	     -4.13962081	      0.30254781	      4.04883177	      0.35961875	      0.00627653	      5.20791564	    -10.02160479	     -7.49999987	     -6.63760026	     -2.29155271	     -4.32954566	     -5.37630553	    -14.08805516	     -6.26990712	     61.44959604	     73.17573831	      6.46205088	    -14.55307557	     59.64092153	     16.70873616	     44.13265832
      1.52916670	     -0.68240938	     -1.62778699	      1.22295624	     -0.87756952	      1.27050215	     -0.13431715	     -2.42015017	      0.32867386	     -4.06951261	      3.73852173	      0.06524951	      2.65249528	    -18.82201714	     -7.49999987	     -4.22214828	      0.33376928	      4.06714720	      0.36455619	      0.00636271	      5.08446373	    -10.19731483	     -7.49999987	     -6.87979322	     -2.17871266	     -4.34539615	     -4.92309494	    -14.09657313	     -5.53726880	     59.23222351	     73.12846041	      6.51859076	    -14.57846174	     58.90177629	     16.99978168	     44.54865907
      1.53333330	     -0.64433164	     -1.62813322	      1.18641935	     -0.87785967	      1.26782039	     -0.13537025	     -2.40918735	      0.27050796	     -4.24543886	      3.82470577	      0.06675371	      2.80132064	    -18.67557250	     -7.49999987	     -4.25342644	      0.37691206	      3.95682984	      0.37169664	      0.00648733	      5.21892900	    -10.20872212	     -7.49999987	     -7.08044692	     -2.01930566	     -4.34652161	     -4.46069286	    -14.00658551	     -5.36628577	     57.11698932	     76.89480869	      6.67247997	    -14.64516481	     59.25508946	     17.29828350	     41.55570442
      1.53750000	     -0.58492056	     -1.62207792	      1.05006428	     -0.87989704	      1.26517766	     -0.13097565	     -2.34791718	      0.27870211	     -4.15652227	      3.95546403	      0.06903587	      2.93581511	    -18.77710761	     -7.49999987	     -4.31532185	      0.38525460	      3.80477911	      0.38632863	      0.00674271	      5.44008568	    -10.02498961	     -7.49999987	     -7.38142483	     -1.96914441	     -4.00313985	     -4.17709310	    -13.83804922	     -5.04645772	     55.39098844	     75.97428494	      7.03322029	    -14.75068866	     58.82486788	     17.37064800	     42.34064843
      1.54166670	     -0.71937200	     -1.61226463	      0.96821745	     -0.87949700	      1.26282261	     -0.13276195	     -2.07123277	      0.24574789	     -4.14100378	      4.17792135	      0.07291848	      3.00884633	    -19.07229340	     -7.49999987	     -4.13683905	      0.41221519	      3.90071391	      0.39856140	      0.00695621	      5.36296909	    -10.44975994	     -7.49999987	     -7.37468428	     -1.90404246	     -3.91719633	     -3.72977825	    -13.81723283	     -4.22974273	     53.25799397	     75.81629909	      7.10765086	    -14.96074229	     58.74500696	     17.64181025	     42.53950389
      1.54583330	     -0.78034375	     -1.61151297	      0.93572513	     -0.88085818	      1.25903330	     -0.13328166	     -1.92323570	      0.21954012	     -4.18654395	      4.24675387	      0.07411984	      3.11662218	    -19.16363187	     -7.49999987	     -4.01686028	      0.42694474	      3.89969462	      0.42083732	      0.00734500	      5.53858570	    -10.52596181	     -7.49999987	     -7.61413328	     -1.67649585	     -3.83169668	     -3.87864518	    -13.75425401	     -4.15071548	     52.98647684	     75.82461347	      7.25556888	    -15.00573063	     58.71369994	     17.68667561	     42.52905224
      1.55000000	     -0.83104700	     -1.64613980	      0.74687005	     -0.87929523	      1.26177605	     -0.13324314	     -1.58651923	      0.22236823	     -4.18195865	      4.74686593	      0.08284844	      3.54013403	    -19.07133485	     -7.49999987	     -3.95589095	      0.39718542	      3.90292544	      0.42079381	      0.00734424	      5.72456992	    -10.64543645	     -7.49999987	     -7.64800871	     -1.64550563	     -3.30417759	     -3.54795329	    -13.69279958	     -3.62777753	     50.11639564	     75.19183821	      7.43127937	    -15.00506681	     57.90936566	     17.99630530	     43.14471731
      1.55416670	     -1.06802263	     -1.68675814	      0.63460815	     -0.88168075	      1.25576653	     -0.13112446	     -1.11574454	      0.26953386	     -4.05388017	      5.08328712	      0.08872010	      3.66957700	    -19.51364241	     -7.49999987	     -3.67167685	      0.35839311	      3.98957319	      0.43904793	      0.00766283	      6.06412343	    -10.93477185	     -7.49999987	     -7.55033915	     -1.52634889	     -2.83101439	     -3.69943336	    -13.65640057	     -3.27973598	     48.75107952	     73.87018371	      7.53826948	    -15.22446134	     56.94258808	     18.58421537	     44.50858411
